<?xml version="1.0" encoding="us-ascii" standalone="no"?><!DOCTYPE svg PUBLIC "-//W3C//DTD SVG 1.1//EN" "http://www.w3.org/Graphics/SVG/1.1/DTD/svg11.dtd"><svg width="100%" height="100%" version="1.1" xmlns="http://www.w3.org/2000/svg" xmlns:xlink="http://www.w3.org/1999/xlink" xmlns:ev="http://www.w3.org/2001/xml-events"><g id="9b211387-2872-44fb-ae43-d8f9e5777ab2" style="fill:rgb(0,0,0);fill-opacity:0;stroke-width:0.35;stroke:rgb(0,0,0);stroke-opacity:1;stroke-linecap:round;stroke-linejoin:round"><line x1="0" y1="192" x2="248" y2="192" /><line x1="248" y1="192" x2="248" y2="0" /><line x1="248" y1="0" x2="0" y2="0" /><line x1="0" y1="0" x2="0" y2="192" /></g><g id="9b211387-2872-44fb-ae43-d8f9e5777ab2" style="fill:rgb(0,0,0);fill-opacity:0;stroke-width:0.35;stroke:rgb(0,0,0);stroke-opacity:1;stroke-linecap:round;stroke-linejoin:round"><line x1="186" y1="184.32" x2="210.8" y2="184.32" /><line x1="186" y1="186.24" x2="186" y2="182.4" /><line x1="210.8" y1="186.24" x2="210.8" y2="182.4" /><text x="213.28" y="186.24" font-size="3">24.8 MM</text></g><g id="9b211387-2872-44fb-ae43-d8f9e5777ab2" style="fill:rgb(0,0,0);fill-opacity:0;stroke-width:0.35;stroke:rgb(0,0,0);stroke-opacity:1;stroke-linecap:round;stroke-linejoin:round"><line x1="199" y1="176" x2="199" y2="66" /><line x1="199" y1="66" x2="149" y2="16" /><line x1="149" y1="16" x2="49" y2="16" /><line x1="49" y1="16" x2="49" y2="176" /><line x1="49" y1="176" x2="199" y2="176" /><circle cx="61.7000007629395" cy="166" r="3.57" /><circle cx="149.910003662109" cy="72.3899993896484" r="2.5" /><circle cx="139" cy="141" r="2.5" /><circle cx="61.7000007629395" cy="46" r="2.5" /><circle cx="126.300003051758" cy="26" r="2.5" /><circle cx="102.669998168945" cy="72.3899993896484" r="2.5" /><circle cx="102.669998168945" cy="119.629997253418" r="2.5" /><circle cx="141.789993286133" cy="80.5100021362305" r="1.5" /><circle cx="189" cy="116" r="2.5" /><circle cx="61.7000007629395" cy="146" r="2.5" /><circle cx="139" cy="61" r="2.5" /><circle cx="149.910003662109" cy="119.629997253418" r="2.5" /><circle cx="110.809997558594" cy="80.5100021362305" r="1.5" /><circle cx="61.7000007629395" cy="26" r="3.57" /><circle cx="126.300003051758" cy="96" r="6.5" /><circle cx="110.809997558594" cy="111.48999786377" r="1.5" /><circle cx="141.789993286133" cy="111.48999786377" r="1.5" /><circle cx="169" cy="116" r="2.5" /><circle cx="126.300003051758" cy="166" r="2.5" /></g></svg>