<?xml version="1.0" encoding="us-ascii" standalone="no"?><!DOCTYPE svg PUBLIC "-//W3C//DTD SVG 1.1//EN" "http://www.w3.org/Graphics/SVG/1.1/DTD/svg11.dtd"><svg width="100%" height="100%" version="1.1" xmlns="http://www.w3.org/2000/svg" xmlns:xlink="http://www.w3.org/1999/xlink" xmlns:ev="http://www.w3.org/2001/xml-events"><g id="a3dfc976-1841-4362-b2b4-e16d76c84c6d" style="fill:rgb(0,0,0);fill-opacity:0;stroke-width:0.35;stroke:rgb(0,0,0);stroke-opacity:1;stroke-linecap:round;stroke-linejoin:round"><line x1="0" y1="324" x2="418.5" y2="324" /><line x1="418.5" y1="324" x2="418.5" y2="0" /><line x1="418.5" y1="0" x2="0" y2="0" /><line x1="0" y1="0" x2="0" y2="324" /></g><g id="a3dfc976-1841-4362-b2b4-e16d76c84c6d" style="fill:rgb(0,0,0);fill-opacity:0;stroke-width:0.35;stroke:rgb(0,0,0);stroke-opacity:1;stroke-linecap:round;stroke-linejoin:round"><line x1="313.875" y1="311.04" x2="355.725" y2="311.04" /><line x1="313.875" y1="314.28" x2="313.875" y2="307.8" /><line x1="355.725" y1="314.28" x2="355.725" y2="307.8" /><text x="359.91" y="314.28" font-size="3">41.85 MM</text></g><g id="a3dfc976-1841-4362-b2b4-e16d76c84c6d" style="fill:rgb(0,0,0);fill-opacity:0;stroke-width:0.35;stroke:rgb(0,0,0);stroke-opacity:1;stroke-linecap:round;stroke-linejoin:round"><line x1="177.25" y1="117.881" x2="177.25" y2="92.88095" /><line x1="177.25" y1="92.88095" x2="183.6" y2="92.88095" /><line x1="183.6" y1="92.88095" x2="183.6" y2="117.881" /><line x1="183.6" y1="117.881" x2="177.25" y2="117.881" /><line x1="241.25" y1="117.881" x2="234.9" y2="117.881" /><line x1="234.9" y1="117.881" x2="234.9" y2="92.88095" /><line x1="234.9" y1="92.88095" x2="241.25" y2="92.88095" /><line x1="241.25" y1="92.88095" x2="241.25" y2="117.881" /><line x1="234.9" y1="130" x2="234.9" y2="136.35" /><line x1="234.9" y1="136.35" x2="183.6" y2="136.35" /><line x1="183.6" y1="136.35" x2="183.6" y2="130" /><line x1="183.6" y1="130" x2="234.9" y2="130" /><line x1="241.25" y1="206.119" x2="241.25" y2="231.119" /><line x1="241.25" y1="231.119" x2="234.9" y2="231.119" /><line x1="234.9" y1="231.119" x2="234.9" y2="206.119" /><line x1="234.9" y1="206.119" x2="241.25" y2="206.119" /><line x1="177.25" y1="206.119" x2="183.6" y2="206.119" /><line x1="183.6" y1="206.119" x2="183.6" y2="231.119" /><line x1="183.6" y1="231.119" x2="177.25" y2="231.119" /><line x1="177.25" y1="231.119" x2="177.25" y2="206.119" /><line x1="234.9" y1="187.65" x2="234.9" y2="194" /><line x1="234.9" y1="194" x2="183.6" y2="194" /><line x1="183.6" y1="194" x2="183.6" y2="187.65" /><line x1="183.6" y1="187.65" x2="234.9" y2="187.65" /><circle cx="209.25" cy="162" r="135" /><circle cx="160.25" cy="190.824996948242" r="2" /><circle cx="180.425003051758" cy="162.000045776367" r="2" /><circle cx="160.25" cy="133.175003051758" r="2" /><circle cx="258.25" cy="190.824996948242" r="2" /><circle cx="238.074996948242" cy="162.000045776367" r="2" /><circle cx="258.25" cy="133.175003051758" r="2" /><circle cx="209.25" cy="162" r="20" /></g></svg>