<?xml version="1.0" encoding="us-ascii" standalone="no"?><!DOCTYPE svg PUBLIC "-//W3C//DTD SVG 1.1//EN" "http://www.w3.org/Graphics/SVG/1.1/DTD/svg11.dtd"><svg width="100%" height="100%" version="1.1" xmlns="http://www.w3.org/2000/svg" xmlns:xlink="http://www.w3.org/1999/xlink" xmlns:ev="http://www.w3.org/2001/xml-events"><g id="33d1acae-98b5-4fd9-a369-f47d95d0eceb" style="fill:rgb(0,0,0);fill-opacity:0;stroke-width:0.35;stroke:rgb(0,0,0);stroke-opacity:1;stroke-linecap:round;stroke-linejoin:round"><line x1="0" y1="165.8857" x2="214.2691" y2="165.8857" /><line x1="214.2691" y1="165.8857" x2="214.2691" y2="1.525879E-05" /><line x1="214.2691" y1="1.525879E-05" x2="0" y2="1.525879E-05" /><line x1="0" y1="1.525879E-05" x2="0" y2="165.8857" /></g><g id="33d1acae-98b5-4fd9-a369-f47d95d0eceb" style="fill:rgb(0,0,0);fill-opacity:0;stroke-width:0.35;stroke:rgb(0,0,0);stroke-opacity:1;stroke-linecap:round;stroke-linejoin:round"><line x1="160.7018" y1="159.2503" x2="182.1287" y2="159.2503" /><line x1="160.7018" y1="160.9092" x2="160.7018" y2="157.5915" /><line x1="182.1287" y1="160.9092" x2="182.1287" y2="157.5915" /><text x="184.2714" y="160.9092" font-size="3">21.4269067433685 MM</text></g><g id="33d1acae-98b5-4fd9-a369-f47d95d0eceb" style="fill:rgb(0,0,0);fill-opacity:0;stroke-width:0.35;stroke:rgb(0,0,0);stroke-opacity:1;stroke-linecap:round;stroke-linejoin:round"><line x1="68.48454" y1="84.94292" x2="62.13453" y2="84.94292" /><line x1="62.13453" y1="84.94292" x2="62.13453" y2="127.0619" /><line x1="62.13453" y1="127.0619" x2="55.78453" y2="127.0619" /><line x1="55.78453" y1="127.0619" x2="55.78453" y2="152.0619" /><line x1="55.78453" y1="152.0619" x2="62.13453" y2="152.0619" /><path d="M62.1345329284668,152.061935424805 a183,183 0 0, 0 90.0000038146973,0 " /><line x1="152.1345" y1="152.0619" x2="152.1345" y2="133.9429" /><line x1="152.1345" y1="133.9429" x2="145.7845" y2="133.9429" /><line x1="145.7845" y1="133.9429" x2="145.7845" y2="135.5679" /><line x1="145.7845" y1="135.5679" x2="138.4845" y2="135.5679" /><line x1="138.4845" y1="135.5679" x2="138.4845" y2="128.3179" /><line x1="138.4845" y1="128.3179" x2="145.7845" y2="128.3179" /><line x1="145.7845" y1="128.3179" x2="145.7845" y2="129.9429" /><line x1="145.7845" y1="129.9429" x2="152.1345" y2="129.9429" /><line x1="152.1345" y1="129.9429" x2="152.1345" y2="114.9429" /><line x1="152.1345" y1="114.9429" x2="106.1345" y2="114.9429" /><line x1="106.1345" y1="114.9429" x2="106.1345" y2="108.5929" /><line x1="106.1345" y1="108.5929" x2="158.4845" y2="108.5929" /><line x1="158.4845" y1="108.5929" x2="158.4845" y2="57.29288" /><line x1="158.4845" y1="57.29288" x2="106.1345" y2="57.29288" /><line x1="106.1345" y1="57.29288" x2="106.1345" y2="50.94288" /><line x1="106.1345" y1="50.94288" x2="152.1345" y2="50.94288" /><line x1="152.1345" y1="50.94288" x2="152.1345" y2="35.94287" /><line x1="152.1345" y1="35.94287" x2="145.7845" y2="35.94287" /><line x1="145.7845" y1="35.94287" x2="145.7845" y2="37.56787" /><line x1="145.7845" y1="37.56787" x2="138.4845" y2="37.56787" /><line x1="138.4845" y1="37.56787" x2="138.4845" y2="30.31787" /><line x1="138.4845" y1="30.31787" x2="145.7845" y2="30.31787" /><line x1="145.7845" y1="30.31787" x2="145.7845" y2="31.94287" /><line x1="145.7845" y1="31.94287" x2="152.1345" y2="31.94287" /><line x1="152.1345" y1="31.94287" x2="152.1345" y2="13.82382" /><path d="M152.134536743164,13.8238220214844 a183,183 0 0, 0 -90.0000038146973,0 " /><line x1="62.13453" y1="13.82382" x2="55.78453" y2="13.82382" /><line x1="55.78453" y1="13.82382" x2="55.78453" y2="38.82382" /><line x1="55.78453" y1="38.82382" x2="62.13453" y2="38.82382" /><line x1="62.13453" y1="38.82382" x2="62.13453" y2="80.94292" /><line x1="62.13453" y1="80.94292" x2="68.48454" y2="80.94292" /><line x1="68.48454" y1="80.94292" x2="68.48454" y2="79.31792" /><line x1="68.48454" y1="79.31792" x2="75.78454" y2="79.31792" /><line x1="75.78454" y1="79.31792" x2="75.78454" y2="86.56792" /><line x1="75.78454" y1="86.56792" x2="68.48454" y2="86.56792" /><line x1="68.48454" y1="86.56792" x2="68.48454" y2="84.94292" /></g></svg>